# xmcd
#
# Track frame offsets:
#	150
#	21197
#	42703
#	59196
#	81248
#	99266
#	122372
#	154015
#	173952
#	194603
#	216190
#	230763
#	250528
#	274013
#	297528
#	310693
#
# Disc length: 4396 seconds
#
# Revision: 1
# Processed by: cddbd v1.5.2PL0 Copyright (c) Steve Scherf et al.
# Submitted via: audiograbber 1.83.01
#
DISCID=ea112a10
DTITLE=Various Artist - Reference Sound Edition - Great Men Of Song [HQCD]
DYEAR=2015
DGENRE=Americana
TTITLE0=The Blues Company - The Blues Been Good To Me
TTITLE1=Ray Bonneville - Sabine River
TTITLE2=Anthony Gomes - Bluebird
TTITLE3=Tom Freund - Copper Moon
TTITLE4=JJ Grey and Mofro - Beautiful World
TTITLE5=Jackie Payne Steve Edmonson Band - Take A Chance On Me
TTITLE6=Guy Davis - Sweetheart Like You
TTITLE7=Colin Linden - Between The Darkness And The Light Of Day
TTITLE8=Chip Taylor and The New Ukrainians - Nothin' (I Suppose)
TTITLE9=Jimmy LaFave - This Land
TTITLE10=Cliff Eberhardt - The High Above And The Down Below
TTITLE11=Otis Taylor - Peggy Lee
TTITLE12=Jorma Kaukonen - Heart Temporary
TTITLE13=Michael Schenker Group - Summerdays
TTITLE14=Raul Midón - Keep Holding On
TTITLE15=Eugene Ruffolo - Holding On To Faith
EXTD=
EXTT0=
EXTT1=
EXTT2=
EXTT3=
EXTT4=
EXTT5=
EXTT6=
EXTT7=
EXTT8=
EXTT9=
EXTT10=
EXTT11=
EXTT12=
EXTT13=
EXTT14=
EXTT15=
PLAYORDER=
